<svg id="SvgjsSvg1006" width="248" height="189" xmlns="http://www.w3.org/2000/svg" version="1.1" xmlns:xlink="http://www.w3.org/1999/xlink" xmlns:svgjs="http://svgjs.com/svgjs" viewBox="0 0 248 189.03750228881836"><defs id="SvgjsDefs1007"></defs><g id="SvgjsG1009" transform="rotate(0 124 61.51874923706055)"><svg width="248" viewBox="0 0 96.06732940673828 47.665000915527344" xmlns="http://www.w3.org/2000/svg" version="1.1" xmlns:xlink="http://www.w3.org/1999/xlink" xmlns:svgjs="http://svgjs.com/svgjs" preserveAspectRatio="none" height="123.0374984741211" x="0" y="0"><g><svg data-color="1" xmlns="http://www.w3.org/2000/svg" xmlns:xlink="http://www.w3.org/1999/xlink" version="1.1" x="0px" y="0px" viewBox="1.9671138525009155 26.16699981689453 96.06732940673828 47.665000915527344" enable-background="new 0 0 100 100" xml:space="preserve" width="96.06732940673828" height="47.665000915527344" fill="#434243"><path d="M97.953,54.436c-0.163-0.784-0.787-1.427-1.624-1.566c-0.698-0.116-10.651-1.764-22.177-3.11  C68.949,37.733,61.565,26.167,50,26.167c-11.565,0-18.948,11.566-24.152,23.592c-11.525,1.346-21.479,2.994-22.177,3.11  c-0.841,0.141-1.466,0.788-1.626,1.576c-0.273,0.963,0.188,2.004,1.127,2.423c0.099,0.044,9.971,4.552,14.627,15.708  c0.317,0.761,1.061,1.256,1.885,1.256s1.568-0.495,1.885-1.256c0.881-2.11,1.805-4.706,2.875-7.713  c1.245-3.496,2.652-7.446,4.273-11.395C36.111,52.648,43.884,52,50,52c6.115,0,13.888,0.648,21.281,1.469  c1.622,3.949,3.029,7.9,4.274,11.397c1.07,3.005,1.994,5.601,2.874,7.71c0.317,0.761,1.062,1.256,1.886,1.256  s1.567-0.495,1.886-1.256c4.656-11.156,14.527-15.664,14.623-15.707C97.771,56.452,98.234,55.403,97.953,54.436z M60,48.401  c-1.707-0.12-3.384-0.218-5-0.287V31.313c1.787,0.771,3.45,1.935,5,3.401V48.401z M40,34.715c1.549-1.467,3.213-2.629,5-3.401  v16.801c-1.616,0.068-3.293,0.167-5,0.287V34.715z M9.582,55.993c2.279-0.344,5.167-0.764,8.418-1.201v9.743  C15.255,60.61,12.117,57.826,9.582,55.993z M20.595,63.493c-0.204,0.572-0.402,1.129-0.595,1.669V54.526  c1.325-0.173,2.695-0.347,4.099-0.519C22.798,57.312,21.643,60.552,20.595,63.493z M38,36.841V48.55  c-2.46,0.194-4.966,0.429-7.45,0.688C32.67,44.616,35.125,40.233,38,36.841z M47,48.045V30.637c0.967-0.242,1.963-0.383,3-0.383  c1.036,0,2.033,0.142,3,0.383v17.409C51.97,48.017,50.964,48,50,48S48.031,48.017,47,48.045z M62,48.55V36.841  c2.875,3.392,5.33,7.774,7.45,12.397C66.966,48.979,64.461,48.744,62,48.55z M75.901,54.008c1.403,0.172,2.773,0.346,4.099,0.519  v10.638c-0.193-0.54-0.392-1.097-0.595-1.668C78.358,60.554,77.202,57.312,75.901,54.008z M82,64.535v-9.743  c3.251,0.438,6.14,0.857,8.418,1.201C87.883,57.826,84.744,60.61,82,64.535z"></path></svg></g><defs id="SvgjsDefs1008"></defs></svg></g><g id="SvgjsG1011" transform="rotate(0 124.0000057220459 167.03750038146973)"><svg xmlns="http://www.w3.org/2000/svg" xmlns:xlink="http://www.w3.org/1999/xlink" width="207.65000915527344" viewBox="0.7799999713897705 9.550000190734863 207.64999389648438 39.20000076293945" overflow="visible" style="overflow: visible;" transform="" version="1.1" xmlns:svgjs="http://svgjs.com/svgjs" preserveAspectRatio="none" height="39.20000076293945" x="20.17500114440918" y="147.4375" fill="#000000" stroke="none"><path stroke="none" fill="#5f5c60" d="M28.26 11.58L28.26 16.66L17.07 16.66L17.07 39.59L11.99 39.59L11.99 16.66L0.78 16.66L0.78 11.58L28.26 11.58ZM52.91 25.47L52.91 25.47L52.91 25.47Q52.91 26.52 52.54 27.74L52.54 27.74L52.54 27.74Q52.17 28.96 51.34 30.01L51.34 30.01L51.34 30.01Q50.51 31.05 49.17 31.76L49.17 31.76L49.17 31.76Q47.84 32.46 45.92 32.46L45.92 32.46L36.76 32.46L36.76 27.64L45.92 27.64L45.92 27.64Q46.96 27.64 47.52 27.00L47.52 27.00L47.52 27.00Q48.09 26.37 48.09 25.43L48.09 25.43L48.09 25.43Q48.09 24.43 47.46 23.87L47.46 23.87L47.46 23.87Q46.82 23.30 45.92 23.30L45.92 23.30L36.76 23.30L36.76 23.30Q35.73 23.30 35.16 23.94L35.16 23.94L35.16 23.94Q34.59 24.57 34.59 25.51L34.59 25.51L34.59 32.60L34.59 32.60Q34.59 33.61 35.23 34.18L35.23 34.18L35.23 34.18Q35.86 34.75 36.80 34.75L36.80 34.75L45.92 34.75L45.92 39.59L36.76 39.59L36.76 39.59Q35.71 39.59 34.49 39.22L34.49 39.22L34.49 39.22Q33.27 38.85 32.22 38.02L32.22 38.02L32.22 38.02Q31.18 37.19 30.47 35.85L30.47 35.85L30.47 35.85Q29.77 34.51 29.77 32.60L29.77 32.60L29.77 25.47L29.77 25.47Q29.77 24.41 30.14 23.19L30.14 23.19L30.14 23.19Q30.51 21.97 31.34 20.93L31.34 20.93L31.34 20.93Q32.17 19.88 33.51 19.18L33.51 19.18L33.51 19.18Q34.85 18.48 36.76 18.48L36.76 18.48L45.92 18.48L45.92 18.48Q46.98 18.48 48.20 18.85L48.20 18.85L48.20 18.85Q49.42 19.22 50.46 20.05L50.46 20.05L50.46 20.05Q51.51 20.88 52.21 22.22L52.21 22.22L52.21 22.22Q52.91 23.55 52.91 25.47ZM77.78 34.51L77.78 39.59L64.01 39.59L64.01 39.59Q62.96 39.59 61.71 39.22L61.71 39.22L61.71 39.22Q60.46 38.85 59.39 38.00L59.39 38.00L59.39 38.00Q58.33 37.15 57.62 35.79L57.62 35.79L57.62 35.79Q56.90 34.43 56.90 32.46L56.90 32.46L56.90 25.59L56.90 25.59Q56.90 24.86 57.07 24.06L57.07 24.06L57.07 24.06Q57.23 23.26 57.59 22.47L57.59 22.47L57.59 22.47Q57.94 21.68 58.49 20.96L58.49 20.96L58.49 20.96Q59.05 20.23 59.84 19.69L59.84 19.69L59.84 19.69Q60.63 19.14 61.67 18.81L61.67 18.81L61.67 18.81Q62.70 18.48 64.01 18.48L64.01 18.48L77.78 18.48L77.78 23.55L64.01 23.55L64.01 23.55Q63.02 23.55 62.50 24.06L62.50 24.06L62.50 24.06Q61.98 24.57 61.98 25.63L61.98 25.63L61.98 32.46L61.98 32.46Q61.98 33.46 62.51 33.98L62.51 33.98L62.51 33.98Q63.04 34.51 64.05 34.51L64.05 34.51L77.78 34.51ZM111.54 17.75L111.54 21.00L111.54 21.00Q111.54 22.73 111.11 24.10L111.11 24.10L111.11 24.10Q110.68 25.47 109.94 26.51L109.94 26.51L109.94 26.51Q109.21 27.56 108.25 28.30L108.25 28.30L108.25 28.30Q107.30 29.04 106.25 29.52L106.25 29.52L106.25 29.52Q105.21 30 104.14 30.21L104.14 30.21L104.14 30.21Q103.08 30.43 102.14 30.43L102.14 30.43L112.75 39.59L104.89 39.59L94.31 30.43L90.66 30.43L90.66 25.35L102.14 25.35L102.14 25.35Q103.10 25.27 103.89 24.95L103.89 24.95L103.89 24.95Q104.68 24.63 105.26 24.08L105.26 24.08L105.26 24.08Q105.83 23.54 106.14 22.76L106.14 22.76L106.14 22.76Q106.46 21.99 106.46 21.00L106.46 21.00L106.46 17.79L106.46 17.79Q106.46 17.36 106.35 17.14L106.35 17.14L106.35 17.14Q106.24 16.91 106.08 16.81L106.08 16.81L106.08 16.81Q105.91 16.70 105.72 16.68L105.72 16.68L105.72 16.68Q105.54 16.66 105.38 16.66L105.38 16.66L88.63 16.66L88.63 39.59L83.55 39.59L83.55 14.14L83.55 14.14Q83.55 13.61 83.74 13.14L83.74 13.14L83.74 13.14Q83.94 12.68 84.28 12.32L84.28 12.32L84.28 12.32Q84.62 11.97 85.09 11.78L85.09 11.78L85.09 11.78Q85.56 11.58 86.11 11.58L86.11 11.58L105.38 11.58L105.38 11.58Q107.08 11.58 108.25 12.20L108.25 12.20L108.25 12.20Q109.43 12.81 110.16 13.74L110.16 13.74L110.16 13.74Q110.89 14.67 111.21 15.74L111.21 15.74L111.21 15.74Q111.54 16.82 111.54 17.75L111.54 17.75ZM122.22 9.55L122.22 14.14L117.14 14.14L117.14 9.55L122.22 9.55ZM122.22 18.48L122.22 39.59L117.14 39.59L117.14 18.48L122.22 18.48ZM151.25 9.55L151.25 32.46L151.25 32.46Q151.25 33.77 150.92 34.81L150.92 34.81L150.92 34.81Q150.59 35.86 150.04 36.65L150.04 36.65L150.04 36.65Q149.49 37.44 148.77 38.00L148.77 38.00L148.77 38.00Q148.05 38.55 147.26 38.91L147.26 38.91L147.26 38.91Q146.46 39.26 145.65 39.42L145.65 39.42L145.65 39.42Q144.84 39.59 144.12 39.59L144.12 39.59L134.96 39.59L134.96 39.59Q133.65 39.59 132.62 39.26L132.62 39.26L132.62 39.26Q131.58 38.93 130.79 38.37L130.79 38.37L130.79 38.37Q130 37.81 129.44 37.09L129.44 37.09L129.44 37.09Q128.89 36.37 128.54 35.58L128.54 35.58L128.54 35.58Q128.18 34.79 128.02 33.97L128.02 33.97L128.02 33.97Q127.85 33.16 127.85 32.46L127.85 32.46L127.85 25.59L127.85 25.59Q127.85 23.63 128.56 22.28L128.56 22.28L128.56 22.28Q129.28 20.92 130.34 20.07L130.34 20.07L130.34 20.07Q131.41 19.22 132.66 18.85L132.66 18.85L132.66 18.85Q133.91 18.48 134.96 18.48L134.96 18.48L144.12 18.48L144.12 23.55L135 23.55L135 23.55Q133.98 23.55 133.46 24.07L133.46 24.07L133.46 24.07Q132.93 24.59 132.93 25.59L132.93 25.59L132.93 32.42L132.93 32.42Q132.93 33.46 133.45 33.98L133.45 33.98L133.45 33.98Q133.96 34.51 134.96 34.51L134.96 34.51L144.12 34.51L144.12 34.51Q145.16 34.51 145.66 33.98L145.66 33.98L145.66 33.98Q146.17 33.46 146.17 32.46L146.17 32.46L146.17 9.55L151.25 9.55ZM180.06 25.59L180.06 41.62L180.06 41.62Q180.06 42.93 179.73 43.97L179.73 43.97L179.73 43.97Q179.40 45.02 178.85 45.81L178.85 45.81L178.85 45.81Q178.30 46.60 177.58 47.16L177.58 47.16L177.58 47.16Q176.86 47.71 176.07 48.07L176.07 48.07L176.07 48.07Q175.28 48.42 174.47 48.58L174.47 48.58L174.47 48.58Q173.66 48.75 172.93 48.75L172.93 48.75L163.77 48.75L163.77 43.67L172.93 43.67L172.93 43.67Q173.97 43.67 174.48 43.14L174.48 43.14L174.48 43.14Q174.98 42.62 174.98 41.62L174.98 41.62L174.98 25.59L174.98 25.59Q174.98 24.59 174.48 24.07L174.48 24.07L174.48 24.07Q173.97 23.55 172.93 23.55L172.93 23.55L163.77 23.55L163.77 23.55Q162.84 23.55 162.29 24.13L162.29 24.13L162.29 24.13Q161.74 24.71 161.74 25.59L161.74 25.59L161.74 32.46L161.74 32.46Q161.74 33.46 162.27 33.98L162.27 33.98L162.27 33.98Q162.80 34.51 163.81 34.51L163.81 34.51L172.93 34.51L172.93 39.59L163.77 39.59L163.77 39.59Q163.05 39.59 162.25 39.42L162.25 39.42L162.25 39.42Q161.45 39.26 160.66 38.91L160.66 38.91L160.66 38.91Q159.87 38.55 159.14 38.00L159.14 38.00L159.14 38.00Q158.42 37.44 157.88 36.65L157.88 36.65L157.88 36.65Q157.33 35.86 157.00 34.81L157.00 34.81L157.00 34.81Q156.66 33.77 156.66 32.46L156.66 32.46L156.66 25.59L156.66 25.59Q156.66 24.86 156.83 24.06L156.83 24.06L156.83 24.06Q157.00 23.26 157.35 22.47L157.35 22.47L157.35 22.47Q157.70 21.68 158.26 20.96L158.26 20.96L158.26 20.96Q158.81 20.23 159.60 19.69L159.60 19.69L159.60 19.69Q160.39 19.14 161.43 18.81L161.43 18.81L161.43 18.81Q162.46 18.48 163.77 18.48L163.77 18.48L172.93 18.48L172.93 18.48Q173.66 18.48 174.47 18.64L174.47 18.64L174.47 18.64Q175.28 18.81 176.07 19.16L176.07 19.16L176.07 19.16Q176.86 19.51 177.58 20.07L177.58 20.07L177.58 20.07Q178.30 20.63 178.85 21.42L178.85 21.42L178.85 21.42Q179.40 22.21 179.73 23.24L179.73 23.24L179.73 23.24Q180.06 24.28 180.06 25.59L180.06 25.59ZM208.43 25.47L208.43 25.47L208.43 25.47Q208.43 26.52 208.05 27.74L208.05 27.74L208.05 27.74Q207.68 28.96 206.85 30.01L206.85 30.01L206.85 30.01Q206.02 31.05 204.69 31.76L204.69 31.76L204.69 31.76Q203.35 32.46 201.43 32.46L201.43 32.46L192.27 32.46L192.27 27.64L201.43 27.64L201.43 27.64Q202.47 27.64 203.04 27.00L203.04 27.00L203.04 27.00Q203.60 26.37 203.60 25.43L203.60 25.43L203.60 25.43Q203.60 24.43 202.97 23.87L202.97 23.87L202.97 23.87Q202.33 23.30 201.43 23.30L201.43 23.30L192.27 23.30L192.27 23.30Q191.24 23.30 190.67 23.94L190.67 23.94L190.67 23.94Q190.11 24.57 190.11 25.51L190.11 25.51L190.11 32.60L190.11 32.60Q190.11 33.61 190.74 34.18L190.74 34.18L190.74 34.18Q191.38 34.75 192.31 34.75L192.31 34.75L201.43 34.75L201.43 39.59L192.27 39.59L192.27 39.59Q191.22 39.59 190.00 39.22L190.00 39.22L190.00 39.22Q188.78 38.85 187.73 38.02L187.73 38.02L187.73 38.02Q186.69 37.19 185.98 35.85L185.98 35.85L185.98 35.85Q185.28 34.51 185.28 32.60L185.28 32.60L185.28 25.47L185.28 25.47Q185.28 24.41 185.65 23.19L185.65 23.19L185.65 23.19Q186.02 21.97 186.85 20.93L186.85 20.93L186.85 20.93Q187.68 19.88 189.02 19.18L189.02 19.18L189.02 19.18Q190.36 18.48 192.27 18.48L192.27 18.48L201.43 18.48L201.43 18.48Q202.49 18.48 203.71 18.85L203.71 18.85L203.71 18.85Q204.93 19.22 205.97 20.05L205.97 20.05L205.97 20.05Q207.02 20.88 207.72 22.22L207.72 22.22L207.72 22.22Q208.43 23.55 208.43 25.47Z" transform="rotate(0 104.60499691963196 29.15000057220459)"></path><defs id="SvgjsDefs1010"></defs></svg></g></svg>